<svg width="191" height="47" viewBox="0 0 191 47" fill="none" xmlns="http://www.w3.org/2000/svg">
    <path d="M63.8998 15.364L61.9204 9.88749L59.941 15.364H63.8998ZM68.509 19.9033H65.4246L64.6412 17.7491H59.1927L58.3953 19.9033H55.3108L60.2278 7.17371H63.62L68.509 19.9033Z" fill="#4A4A49"/>
    <path d="M75.2725 12.993C75.8181 12.993 76.2657 12.8391 76.6154 12.5243C76.9651 12.2096 77.14 11.7969 77.14 11.2724C77.14 10.7548 76.9651 10.3351 76.6154 10.0204C76.2657 9.70564 75.8181 9.55176 75.2725 9.55176H72.3979V12.986H75.2725V12.993ZM72.3979 19.9033H69.6911V7.17371H75.6362C76.9721 7.17371 78.0143 7.56539 78.7697 8.34875C79.5251 9.13211 79.9027 10.1043 79.9027 11.2794C79.9027 12.4404 79.5251 13.4126 78.7627 14.203C78.0003 14.9933 76.9582 15.385 75.6362 15.385H72.3979V19.9033Z" fill="#4A4A49"/>
    <path d="M87.2258 14.196H84.2882V17.5183H87.2258C87.7573 17.5183 88.191 17.3644 88.5337 17.0566C88.8694 16.7489 89.0373 16.3502 89.0373 15.8536C89.0373 15.343 88.8694 14.9444 88.5337 14.6436C88.191 14.3498 87.7573 14.196 87.2258 14.196ZM81.5814 7.17371H90.8628V9.55876H84.2882V11.8109H87.5825C88.8904 11.8109 89.9186 12.1956 90.667 12.972C91.4153 13.7483 91.793 14.7066 91.793 15.8536C91.793 17.0007 91.4153 17.9589 90.667 18.7353C89.9186 19.5116 88.8904 19.8963 87.5825 19.8963H81.5814V7.17371Z" fill="#4A4A49"/>
    <path d="M102.466 19.9033H93.4717V7.17371H102.466V9.55876H96.1784V12.2516H102.333V14.6366H96.1784V17.5183H102.466V19.9033Z" fill="#4A4A49"/>
    <path d="M115.462 19.9033H112.125L108.279 14.8115L107.285 15.9935V19.9033H104.579V7.17371H107.285V12.8601L111.783 7.17371H115.119L110.069 13.1468L115.462 19.9033Z" fill="#4A4A49"/>
    <path d="M119.036 16.546C119.742 17.3364 120.672 17.728 121.827 17.728C122.981 17.728 123.918 17.3364 124.624 16.546C125.338 15.7557 125.694 14.7555 125.694 13.5455C125.694 12.3354 125.338 11.3353 124.624 10.5519C123.911 9.76155 122.981 9.36987 121.827 9.36987C120.672 9.36987 119.742 9.76155 119.036 10.5519C118.329 11.3423 117.98 12.3424 117.98 13.5455C117.98 14.7555 118.329 15.7557 119.036 16.546ZM121.827 20.1341C119.91 20.1341 118.322 19.5116 117.07 18.2736C115.818 17.0356 115.196 15.4549 115.196 13.5525C115.196 11.643 115.818 10.0693 117.07 8.83131C118.322 7.59332 119.903 6.97083 121.827 6.97083C123.757 6.97083 125.345 7.58632 126.597 8.82431C127.849 10.0553 128.471 11.636 128.471 13.5594C128.471 15.4829 127.842 17.0566 126.597 18.2946C125.345 19.5186 123.757 20.1341 121.827 20.1341Z" fill="#4A4A49"/>
    <path d="M136.577 17.5532C137.088 17.5532 137.487 17.4203 137.78 17.1615C138.074 16.9028 138.221 16.5391 138.221 16.0844C138.221 15.6648 138.074 15.3081 137.78 15.0283C137.487 14.7415 137.088 14.6016 136.577 14.6016H133.087V17.5602H136.577V17.5532ZM136.48 12.2725C136.934 12.2725 137.298 12.1466 137.564 11.8879C137.829 11.6361 137.962 11.3003 137.962 10.8947C137.962 10.489 137.822 10.1533 137.55 9.89448C137.277 9.63569 136.92 9.5028 136.473 9.5028H133.08V12.2725H136.48ZM137.277 19.9033H130.381V7.17371H137.067C138.221 7.17371 139.123 7.48845 139.76 8.11793C140.403 8.74742 140.725 9.51679 140.725 10.4191C140.725 11.1954 140.515 11.8459 140.096 12.3635C139.676 12.888 139.158 13.2098 138.536 13.3357C139.221 13.4406 139.802 13.7903 140.27 14.3848C140.739 14.9863 140.977 15.6788 140.977 16.4621C140.977 17.4553 140.655 18.2736 140.005 18.9241C139.354 19.5816 138.445 19.9033 137.277 19.9033Z" fill="#4A4A49"/>
    <path d="M149.167 20.1341C147.237 20.1341 145.628 19.5186 144.334 18.2946C143.047 17.0636 142.404 15.4829 142.404 13.5525C142.404 11.615 143.047 10.0413 144.334 8.81032C145.621 7.57933 147.237 6.97083 149.167 6.97083C151.545 6.97083 153.315 8.00598 154.483 10.0833L152.161 11.2303C151.881 10.6988 151.468 10.2511 150.93 9.90143C150.391 9.55172 149.804 9.37686 149.167 9.37686C148.013 9.37686 147.055 9.76854 146.307 10.5589C145.558 11.3492 145.18 12.3494 145.18 13.5525C145.18 14.7625 145.558 15.7626 146.307 16.553C147.055 17.3434 148.006 17.735 149.167 17.735C149.804 17.735 150.391 17.5602 150.93 17.2175C151.468 16.8747 151.881 16.4271 152.161 15.8815L154.483 17.0076C153.28 19.0919 151.503 20.1341 149.167 20.1341Z" fill="#4A4A49"/>
    <path d="M166.982 19.9033H163.652L159.798 14.8115L158.812 15.9935V19.9033H156.105V7.17371H158.812V12.8601L163.31 7.17371H166.639L161.589 13.1468L166.982 19.9033Z" fill="#4A4A49"/>
    <path d="M175.466 15.364L173.486 9.88749L171.507 15.364H175.466ZM180.075 19.9033H176.99L176.207 17.7491H170.759L169.961 19.9033H166.877L171.794 7.17371H175.186L180.075 19.9033Z" fill="#4A4A49"/>
    <path d="M185.447 12.993H188.286V9.55876H185.447C184.887 9.55876 184.432 9.71263 184.076 10.0274C183.719 10.3421 183.544 10.7548 183.544 11.2794C183.544 11.8039 183.719 12.2166 184.076 12.5313C184.432 12.8391 184.887 12.993 185.447 12.993ZM183.81 19.9033H180.704L183.565 15.0563C182.789 14.8744 182.131 14.4618 181.593 13.8183C181.054 13.1678 180.781 12.3215 180.781 11.2794C180.781 10.0693 181.166 9.08315 181.935 8.32077C182.705 7.55839 183.74 7.17371 185.055 7.17371H191V19.9033H188.293V15.378H186.328L183.81 19.9033Z" fill="#4A4A49"/>
    <path d="M61.0252 40.6553C59.8921 40.6553 58.8569 40.4665 57.9197 40.0818C56.9825 39.6971 56.269 39.2075 55.7864 38.613L57.1993 36.8015C57.6189 37.2491 58.1785 37.5988 58.8849 37.8576C59.5913 38.1164 60.2628 38.2493 60.9133 38.2493C61.7386 38.2493 62.3891 38.1024 62.8577 37.8016C63.3263 37.5009 63.5641 37.1092 63.5641 36.6266C63.5641 35.6474 62.6338 35.1578 60.7664 35.1578H58.1925V32.7727H60.7664C61.5567 32.7727 62.1792 32.6608 62.6548 32.43C63.1234 32.1992 63.3613 31.8635 63.3613 31.4158C63.3613 30.9332 63.1165 30.5625 62.6339 30.2968C62.1512 30.031 61.5287 29.9051 60.7664 29.9051C59.3815 29.9051 58.2344 30.3457 57.3182 31.22L55.9543 29.5274C56.4859 28.9189 57.1993 28.4293 58.0806 28.0586C58.9618 27.6879 59.948 27.506 61.0252 27.506C62.5219 27.506 63.7389 27.8208 64.6622 28.4433C65.5924 29.0658 66.0541 29.9051 66.0541 30.9612C66.0541 31.7236 65.7813 32.3671 65.2357 32.8777C64.6902 33.3952 64.0397 33.724 63.2913 33.8569C64.0257 33.9338 64.7042 34.2415 65.3197 34.7801C65.9352 35.3187 66.2429 36.0321 66.2429 36.9064C66.2429 38.0045 65.7533 38.8997 64.7741 39.5992C63.7949 40.3056 62.5499 40.6553 61.0252 40.6553Z" fill="#4A4A49"/>
    <path d="M75.5243 35.8852L73.5449 30.4087L71.5656 35.8852H75.5243ZM80.1336 40.4245H77.0491L76.2657 38.2702H70.8172L70.0198 40.4245H66.9353L71.8523 27.6949H75.2446L80.1336 40.4245Z" fill="#4A4A49"/>
    <path d="M86.8201 40.6553C84.8897 40.6553 83.281 40.0398 81.987 38.8158C80.7001 37.5848 80.0566 36.0041 80.0566 34.0737C80.0566 32.1363 80.7001 30.5556 81.987 29.3316C83.274 28.1006 84.8897 27.4921 86.8201 27.4921C89.1981 27.4921 90.9677 28.5272 92.1357 30.6045L89.8136 31.7516C89.5339 31.22 89.1212 30.7724 88.5826 30.4227C88.0441 30.073 87.4566 29.8981 86.8201 29.8981C85.666 29.8981 84.7078 30.2898 83.9594 31.0801C83.211 31.8705 82.8333 32.8707 82.8333 34.0807C82.8333 35.2907 83.211 36.2909 83.9594 37.0742C84.7078 37.8646 85.659 38.2563 86.8201 38.2563C87.4566 38.2563 88.0441 38.0814 88.5826 37.7387C89.1212 37.396 89.5339 36.9483 89.8136 36.4028L92.1357 37.5289C90.9327 39.6132 89.1632 40.6553 86.8201 40.6553Z" fill="#4A4A49"/>
    <path d="M99.4168 40.4245H96.696V30.0799H92.9751V27.6949H103.117V30.0799H99.4168V40.4245Z" fill="#4A4A49"/>
    <path d="M110.866 35.8852L108.887 30.4087L106.908 35.8852H110.866ZM115.483 40.4245H112.398L111.615 38.2702H106.166L105.369 40.4245H102.284L107.201 27.6949H110.594L115.483 40.4245Z" fill="#4A4A49"/>
    <path d="M122.855 38.0814C123.365 38.0814 123.764 37.9485 124.058 37.6897C124.351 37.4309 124.498 37.0672 124.498 36.6126C124.498 36.1929 124.351 35.8362 124.058 35.5565C123.764 35.2767 123.365 35.1298 122.855 35.1298H119.365V38.0884H122.855V38.0814ZM122.757 32.7937C123.211 32.7937 123.575 32.6678 123.841 32.409C124.107 32.1572 124.24 31.8215 124.24 31.4158C124.24 31.0102 124.1 30.6745 123.827 30.4157C123.554 30.1569 123.197 30.024 122.75 30.024H119.358V32.7937H122.757ZM123.561 40.4245H116.665V27.6949H123.351C124.505 27.6949 125.408 28.0096 126.044 28.6391C126.688 29.2686 127.009 30.038 127.009 30.9402C127.009 31.7166 126.799 32.3671 126.38 32.8846C125.96 33.4022 125.443 33.731 124.82 33.8569C125.506 33.9618 126.086 34.3115 126.555 34.906C127.023 35.5005 127.261 36.1999 127.261 36.9833C127.261 37.9765 126.939 38.7948 126.289 39.4453C125.638 40.1028 124.729 40.4245 123.561 40.4245Z" fill="#4A4A49"/>
    <path d="M136.535 35.8852L134.556 30.4087L132.577 35.8852H136.535ZM141.145 40.4245H138.06L137.277 38.2702H131.828L131.031 40.4245H127.946L132.863 27.6949H136.256L141.145 40.4245Z" fill="#4A4A49"/>
    <path d="M11.8097 5.94072L6.19819 8.10675L12.389 24.1451L18.0005 21.9791L11.8097 5.94072Z" fill="#EC6608"/>
    <path d="M18.1292 25.8973L2.44101 18.924L0 24.4355L15.6952 31.4018L16.6184 29.3175L18.1292 25.8973Z" fill="#EC6608"/>
    <path d="M4.97294 34.7522L20.9899 28.5692L23.1511 34.1856L7.13417 40.3756L4.97294 34.7522Z" fill="#BCCF00"/>
    <path d="M30.3972 30.8773L28.6696 30.108L24.8997 28.4293L17.9404 44.1525L23.4379 46.5935L29.2711 33.4232L30.3972 30.8773Z" fill="#BCCF00"/>
    <path d="M32.5514 17.3364L29.8656 16.1473L28.9703 18.1687L27.4316 21.6518L43.1198 28.6251L45.5608 23.1137L32.5514 17.3364Z" fill="#EC6608"/>
    <path d="M33.7404 41.6136L27.5645 25.5687L33.1739 23.4005L39.3499 39.4453L33.7404 41.6136Z" fill="#EC6608"/>
    <path d="M40.5879 12.7971L24.5709 18.9801L22.4097 13.3567L38.4196 7.17371L40.5879 12.7971Z" fill="#BCCF00"/>
    <path d="M27.6204 3.39676L20.6611 19.1129L16.1148 17.0986L15.5833 15.7207L22.1229 0.95575L27.6204 3.39676Z" fill="#BCCF00"/>
</svg>
