<svg width="200" height="48" viewBox="0 0 200 48" fill="none" xmlns="http://www.w3.org/2000/svg">
    <path d="M195.1 7.79999C197.2 7.79999 198.9 9.49999 198.9 11.6C198.9 13.7 197.2 15.4 195.1 15.4C193 15.4 191.3 13.7 191.3 11.6C191.2 9.59999 193 7.79999 195.1 7.79999Z" stroke="#4D4D4F" stroke-width="0.3642" stroke-miterlimit="22.9256"/>
    <path fill-rule="evenodd" clip-rule="evenodd" d="M196.8 13.6H195.5L194.9 12.2H194.5V13.6H193.3V9.79999H195.3C195.7 9.79999 196.1 9.89999 196.3 10.1C196.5 10.3 196.7 10.6 196.7 10.9C196.7 11.1 196.7 11.3 196.6 11.5C196.5 11.7 196.3 11.8 196.1 11.9L196.8 13.6ZM194.6 11.3H195.1C195.2 11.3 195.4 11.3 195.5 11.2C195.6 11.1 195.6 11 195.6 10.9C195.6 10.7 195.5 10.5 195.2 10.5H194.7V11.3H194.6Z" fill="#4D4D4F"/>
    <path d="M0 16.8L18.5 0L37.1 16.8V45.7H0V16.8Z" fill="#638F3D"/>
    <path d="M24 38.2C23.1 38.2 22.3 37.4 22.3 36.5C22.3 35.6 23.1 34.8 24 34.8C24.9 34.8 25.7 35.6 25.7 36.5C25.7 37.5 24.9 38.2 24 38.2ZM16.8 16.4C16.8 15.5 17.6 14.7 18.5 14.7C19.4 14.7 20.2 15.5 20.2 16.4C20.2 17.3 19.5 18.1 18.6 18.1H18.5C17.5 18 16.8 17.3 16.8 16.4ZM13.3 35.1C12.4 35.1 11.6 34.3 11.6 33.4C11.6 32.5 12.4 31.7 13.3 31.7C14.2 31.7 15 32.5 15 33.4C15 34.3 14.2 35.1 13.3 35.1ZM13.1 23.6C12.2 23.6 11.4 22.8 11.4 21.9C11.4 21 12.2 20.2 13.1 20.2C14 20.2 14.8 21 14.8 21.9C14.8 22.8 14 23.6 13.1 23.6ZM23.9 25.2C24.8 25.2 25.6 26 25.6 26.9C25.6 27.8 24.8 28.6 23.9 28.6C23 28.6 22.2 27.8 22.2 26.9C22.1 26 22.9 25.2 23.9 25.2ZM24 33.7C22.4 33.7 21.1 35 21.1 36.6C21.1 36.9 21.1 37.1 21.2 37.3L19.2 38.8V31L21.8 29C22.3 29.5 23 29.8 23.8 29.8C25.4 29.8 26.7 28.5 26.7 26.9C26.7 25.3 25.4 24 23.8 24C22.2 24 20.9 25.3 20.9 26.9C20.9 27.4 21 27.8 21.2 28.2L19.2 29.7V19.1C20.4 18.8 21.3 17.7 21.3 16.4C21.3 14.8 20 13.5 18.4 13.5C16.8 13.5 15.5 14.8 15.5 16.4C15.5 17.7 16.4 18.8 17.6 19.1V24.9L15.4 23.2C15.6 22.8 15.8 22.3 15.8 21.8C15.8 20.2 14.5 18.9 12.9 18.9C11.3 18.9 10 20.2 10 21.8C10 23.4 11.3 24.7 12.9 24.7C13.6 24.7 14.2 24.4 14.8 24L17.6 26.1V36L15.7 34.6C15.9 34.2 16 33.8 16 33.3C16 31.7 14.7 30.4 13.1 30.4C11.5 30.4 10.2 31.7 10.2 33.3C10.2 34.9 11.5 36.2 13.1 36.2C13.9 36.2 14.5 35.9 15.1 35.4L17.6 37.3V45.7H19.1V40L21.5 38.2C22 38.9 22.9 39.4 23.8 39.4C25.4 39.4 26.7 38.1 26.7 36.5C26.9 35 25.6 33.7 24 33.7Z" fill="white"/>
    <path d="M184.2 25V19.5H180.5C178.9 19.5 177.7 20.6 177.7 22.2C177.7 23.8 178.8 25 180.5 25H184.2ZM178.4 26.7C176.5 26 175.3 24.4 175.3 22.3C175.3 19.6 177.2 17.4 180.4 17.4H186.5V32.2H184V27H180.7L177.2 32.2H174.6V31.8L178.4 26.7ZM160.9 32.3H160V17.4H162.5V22.8L162.3 27.3L171.3 17.3H172.2V32.1H169.8V26.7L170 22L160.9 32.3ZM152.3 25.6C154 25.6 155.2 24.3 155.2 22.6C155.2 20.9 154.1 19.6 152.3 19.6H148.6V25.7H152.3V25.6ZM146.2 32.2V17.4H152.3C155.6 17.4 157.5 19.8 157.5 22.6C157.5 25.4 155.5 27.7 152.3 27.7H148.6V32.1H146.2V32.2ZM133 19.6V17.4H144V19.6H139.7V32.2H137.3V19.6H133ZM131.2 19.6H124.7V23.5H130.9V25.7H124.7V30H131.4V32.2H122.3V17.4H131.3V19.6H131.2ZM117.6 17.4H118.5V32.2H116V23L111.7 28.5H111.4L107.1 23V32.3H104.6V17.4H105.5L111.5 25.1L117.6 17.4ZM94.3 30.2C97.1 30.2 99.4 28.3 99.4 24.9C99.4 21.5 97.1 19.5 94.3 19.5C91.5 19.5 89.1999 21.4 89.1999 24.9C89.2999 28.3 91.5 30.2 94.3 30.2ZM94.3 32.5C90.2 32.5 86.8 29.7 86.8 24.8C86.8 20 90.3 17.1 94.4 17.1C98.4 17.1 101.9 19.9 101.9 24.8C101.8 29.3 98.7 32.5 94.3 32.5ZM79.0999 19.6V32.2H76.5999V17.4H85.4V19.6H79.0999ZM67.0999 27.3L61.7 17.7V17.4H64.4L68.3 24.8H68.4L71.9 17.4H74.5V17.7L68.6999 29.4C67.4999 32 66 33.4 62.7999 32.1L63.0999 30.2C64.5999 30.9 65.5999 30.4 66.1999 29L67.0999 27.3ZM49.5999 32.2H47.2V31.9L53.7 17.3H54.7999L61.2999 31.9V32.2H58.9L54.2999 21.4L49.5999 32.2Z" fill="#4D4D4F"/>
    <path d="M132.1 43.4V42.2L130.8 42.5C129.5 42.8 128.4 43 128.4 44C128.4 44.8 129 45.2 130 45.2C131.2 45.1 132.1 44.3 132.1 43.4ZM132.7 41.1V45.5H132.1V44.6C131.7 45.3 130.8 45.6 129.9 45.6C128.7 45.6 127.7 45.1 127.7 43.9C127.7 42.5 129.1 42.1 130.6 41.9L132 41.6V41.1C132 40.1 131.3 39.6 130.3 39.6C129.6 39.6 129 39.8 128.2 40.7L127.8 40.3C128.6 39.4 129.4 39.1 130.3 39.1C131.8 39.2 132.7 40 132.7 41.1ZM125.1 44.9V39.8H122.2V41.5C122.2 43.6 121.8 44.5 121.4 44.9H125.1ZM120.1 44.9H120.7C121.2 44.5 121.6 43.6 121.6 41.5V39.3H125.7V44.9H126.7V47H126.1V45.4H120.8V47H120.2V44.9H120.1ZM114.1 42.4C114.1 44 115 45.1 116.3 45.1C117.7 45.1 118.6 44 118.6 42.4C118.6 40.8 117.7 39.7 116.3 39.7C114.9 39.7 114.1 40.8 114.1 42.4ZM119.2 42.4C119.2 44.3 118 45.6 116.3 45.6C114.6 45.6 113.4 44.3 113.4 42.4C113.4 40.5 114.6 39.2 116.3 39.2C118 39.2 119.2 40.5 119.2 42.4ZM111.7 42.4C111.7 40.8 110.9 39.7 109.7 39.7C108.4 39.7 107.5 40.7 107.5 42.4C107.5 44.1 108.4 45.1 109.7 45.1C110.8 45.1 111.7 44 111.7 42.4ZM112.3 42.4C112.3 44.3 111.2 45.6 109.6 45.6C108.6 45.6 107.8 45.2 107.4 44.4V47.8H106.8V39.3H107.4V40.5C107.8 39.6 108.6 39.1 109.7 39.1C111.2 39.2 112.3 40.5 112.3 42.4ZM104.8 39.3V45.4H104.2V42.4C104.2 41.3 104.2 40.6 104.2 39.9C103.7 40.6 103.1 41.4 102.5 42.4L100.5 45.3H99.9001V39.2H100.5V42.5C100.5 43.2 100.5 43.8 100.5 44.6C101 43.8 101.5 43.1 102.2 42.1L104.3 39.2H104.8V39.3ZM97.7 42.4C97.7 40.8 96.9 39.7 95.7 39.7C94.4 39.7 93.5 40.7 93.5 42.4C93.5 44.1 94.4 45.1 95.7 45.1C96.9 45.1 97.7 44 97.7 42.4ZM98.4001 42.4C98.4001 44.3 97.3 45.6 95.7 45.6C94.7 45.6 93.9001 45.2 93.5 44.4V47.8H92.9001V39.3H93.5V40.5C93.9001 39.6 94.7001 39.1 95.8001 39.1C97.3001 39.2 98.4001 40.5 98.4001 42.4ZM90.3001 45.5V39.9H86.8001V45.5H86.2V39.4H90.9001V45.5H90.3001ZM80.6 39.8H78.9001C77.9001 39.8 77.2 40.3 77.2 41.1C77.2 42 77.8001 42.5 78.9001 42.5H80.6V39.8ZM81.2 39.3V45.4H80.6V43H79.3001L77.1 45.4H76.3001L78.5 43C77.4 42.9 76.6 42.2 76.6 41.1C76.6 40 77.5001 39.3 78.8001 39.3H81.2ZM74.5 43.4V42.2L73.2 42.5C71.9 42.8 70.8001 43 70.8001 44C70.8001 44.8 71.4001 45.2 72.4001 45.2C73.6001 45.1 74.5 44.3 74.5 43.4ZM75.1 41.1V45.5H74.5V44.6C74.1 45.3 73.2001 45.6 72.3001 45.6C71.1001 45.6 70.1 45.1 70.1 43.9C70.1 42.5 71.5 42.1 73 41.9L74.4001 41.6V41.1C74.4001 40.1 73.7 39.6 72.7 39.6C72 39.6 71.4 39.8 70.6 40.7L70.2 40.3C71 39.4 71.8 39.1 72.7 39.1C74.2 39.2 75.1 40 75.1 41.1ZM62.9001 45.4L63 44.9C63.1 44.9 63.3 45 63.5 45C64.2001 45 64.4001 44.5 64.4001 42.4V39.4H68.5V45.5H67.9001V39.9H64.9001V42.5C64.9001 44.8 64.6001 45.6 63.4001 45.6C63.3001 45.5 63.1001 45.5 62.9001 45.4ZM61.8 39.3V45.4H61.2001V42.4C61.2001 41.3 61.2001 40.6 61.2001 39.9C60.7001 40.6 60.1 41.4 59.5 42.4L57.5 45.3H56.9001V39.2H57.5V42.5C57.5 43.2 57.5 43.8 57.5 44.6C58 43.8 58.5001 43.1 59.2001 42.1L61.3 39.2H61.8V39.3ZM52.8 42.6H51.7001V45.5H51.1V42.6H50L48 45.5H47.3L49.6 42.3L47.5 39.3H48.2001L50.1 42H51.2001V39.3H51.8V42H52.9001L54.8 39.3H55.5L53.4001 42.3L55.7001 45.5H55L52.8 42.6Z" fill="#4D4D4F"/>
</svg>
